<svg xmlns="http://www.w3.org/2000/svg">
  <symbol id="logo" viewBox="0 0 140 100">
    <title>4EveryPet Logo</title>
    <polygon points="26.7 31.2 45.2 31.2 45.2 36.5 32.3 36.5 32.3 43.2 44.7 43.2 44.7 48.5 32.3 48.5 32.3 55.3 45.7 55.3 45.7 60.6 26.7 60.6 26.7 31.2"/>
    <polygon points="47 39.8 52.7 39.8 57.6 58.1 58.3 58.1 63.2 39.8 68.9 39.8 63 60.6 52.9 60.6 47 39.8"/>
    <path d="M80,44a5.18,5.18,0,0,0-3.3,1,4.65,4.65,0,0,0-1.6,2.4h9.8A3.6,3.6,0,0,0,83.3,45,4.83,4.83,0,0,0,80,44Zm-5,7.9a4.71,4.71,0,0,0,.4,1.7,3.48,3.48,0,0,0,1.1,1.3,5.07,5.07,0,0,0,1.6.9,5.82,5.82,0,0,0,1.9.3,5.13,5.13,0,0,0,3-.7,4,4,0,0,0,1.5-1.7L89,56.2c-.3.5-.6,1.1-1,1.7a6.56,6.56,0,0,1-1.7,1.6,8.93,8.93,0,0,1-2.6,1.2,12.5,12.5,0,0,1-3.6.5,11.76,11.76,0,0,1-4.3-.8,8.34,8.34,0,0,1-3.3-2.2,10.43,10.43,0,0,1-2.2-3.5,13.6,13.6,0,0,1-.8-4.7v-.3a12.31,12.31,0,0,1,.8-4.4,11.05,11.05,0,0,1,2.2-3.4,12.68,12.68,0,0,1,3.3-2.2,11.09,11.09,0,0,1,4.1-.8,10.78,10.78,0,0,1,4.6.9,9.63,9.63,0,0,1,3.2,2.4,10.14,10.14,0,0,1,1.8,3.2,10.61,10.61,0,0,1,.6,3.4v2.8H75Z"/>
    <path d="M92.7,39.8h8.8v3h.8a6,6,0,0,1,2-2.7,6.16,6.16,0,0,1,3.4-.9,6.7,6.7,0,0,1,5,2c1.3,1.3,1.9,3.3,1.9,5.9V48l-5.4.5v-.6a4.28,4.28,0,0,0-.9-2.8,3.25,3.25,0,0,0-2.6-1,3.49,3.49,0,0,0-2.8,1.2,5.22,5.22,0,0,0-1,3.5v6.7h3.7v5h-13v-5h3.8V44.8H92.6v-5Z"/>
    <path d="M131.5,39.8h5.3v26a3.41,3.41,0,0,1-.9,2.4,3.17,3.17,0,0,1-2.3.9H121.3v-5h9.2c.8,0,1.1-.4,1.1-1.3V57.7h-.8c-.9,2.4-2.9,3.6-5.9,3.6a9.29,9.29,0,0,1-2.9-.5,5.33,5.33,0,0,1-2.3-1.6,7.6,7.6,0,0,1-1.6-2.6,10.64,10.64,0,0,1-.6-3.7V39.8h5.3V51.7a5.4,5.4,0,0,0,1,3.5,3.85,3.85,0,0,0,3.1,1.2,4,4,0,0,0,3.5-1.5,7.23,7.23,0,0,0,1.1-4.2Z"/>
    <path d="M31.8,79h5.4a4,4,0,0,0,2.9-1,3.47,3.47,0,0,0,1.1-2.6v-.5a3.47,3.47,0,0,0-1.1-2.6,4,4,0,0,0-2.9-1H31.8Zm0,5.3V95.4H26.3V65.9H37.8a9.37,9.37,0,0,1,3.9.7,9.23,9.23,0,0,1,2.8,1.9,9.48,9.48,0,0,1,1.7,2.7,8.53,8.53,0,0,1,.6,3.1v1a8.66,8.66,0,0,1-.6,3.2,7.28,7.28,0,0,1-1.7,2.8,8.36,8.36,0,0,1-2.8,2,9.35,9.35,0,0,1-3.9.8h-6Z"/>
    <path d="M58.1,78.7a5.18,5.18,0,0,0-3.3,1,4.65,4.65,0,0,0-1.6,2.4H63a3.6,3.6,0,0,0-1.6-2.4,4.83,4.83,0,0,0-3.3-1Zm-4.9,8a4.71,4.71,0,0,0,.4,1.7,3.48,3.48,0,0,0,1.1,1.3,5.07,5.07,0,0,0,1.6.9,5.82,5.82,0,0,0,1.9.3,5.13,5.13,0,0,0,3-.7,4,4,0,0,0,1.5-1.7L67.2,91c-.3.5-.6,1.1-1,1.7a6.56,6.56,0,0,1-1.7,1.6,8.93,8.93,0,0,1-2.6,1.2,12.5,12.5,0,0,1-3.6.5,11.76,11.76,0,0,1-4.3-.8A8.34,8.34,0,0,1,50.7,93a10.43,10.43,0,0,1-2.2-3.5,13.6,13.6,0,0,1-.8-4.7v-.3a12.31,12.31,0,0,1,.8-4.4,11.05,11.05,0,0,1,2.2-3.4A12.68,12.68,0,0,1,54,74.5a11.09,11.09,0,0,1,4.1-.8,10.78,10.78,0,0,1,4.6.9A9.63,9.63,0,0,1,65.9,77a10.14,10.14,0,0,1,1.8,3.2,10.61,10.61,0,0,1,.6,3.4v2.8H53.2Z"/>
    <path d="M70.2,74.5h3.4V65.9h5.3v8.6h7.5v5H78.9V89c0,.8.4,1.3,1.1,1.3h5.6v5H76.8a3.17,3.17,0,0,1-2.3-.9,3.24,3.24,0,0,1-.9-2.4V79.6H70.2Z"/>
    <path d="M4.8,48.9v.8h8.3V33.9h-.8ZM8.1,31.1H18.6V49.7h4.3V55H18.6v5.5H13.1V55H.1V47.4Z"/>
    <path d="M22.1,11.6v-.8H13.8V26.6h.8ZM18.7,29.4H8.2V10.8H3.9V5.5H8.2V0h5.5V5.5h13v7.6Z"/>
  </symbol>
</svg>
