<svg xmlns="http://www.w3.org/2000/svg" viewBox="0 0 287.83 338.98">
  <defs>
    <style>
      .cls-1 {
        fill: #201e1e;
      }
    </style>
  </defs>
  <title>blob01</title>
  <g id="Layer_2" data-name="Layer 2">
    <g id="Layer_1-2" data-name="Layer 1">
      <path class="cls-1" d="M257.94,132.55a136,136,0,0,0-4.16-37C243.55,55,201.3,13.41,160.57,3.75,75.64-16.4,0,47.46,0,129A129,129,0,0,0,67.6,242.46a132.33,132.33,0,0,1,52.16,50.89A89.81,89.81,0,0,0,199.69,339c49.5-.91,89.27-42.46,88.12-92a89.36,89.36,0,0,0-11.51-41.95A139.87,139.87,0,0,1,257.94,132.55Z"/>
    </g>
  </g>
</svg>
